<!--?xml version="1.0" encoding="utf-8"?-->
<!-- Generator: Adobe Illustrator 18.1.1, SVG Export Plug-In . SVG Version: 6.00 Build 0)  -->

<svg version="1.1" id="_x32_" xmlns="http://www.w3.org/2000/svg" xmlns:xlink="http://www.w3.org/1999/xlink" x="0px" y="0px" viewBox="0 0 512 512" style="width: 256px; height: 256px; opacity: 1;" xml:space="preserve">
<style type="text/css">
	.st0{fill:#4B4B4B;}
</style>
<g>
	<path class="st0" d="M480.117,11.447C347.157-35.48,292.409,74.016,288.499,120.943C441.011,144.406,472.295,58.374,480.117,11.447
		z" style="fill: rgb(84, 168, 25);"></path>
	<path class="st0" d="M255.999,128.764c-139.71,0-252.972,72.674-252.972,194.918C3.027,445.932,116.289,512,255.999,512
		c139.716,0,252.974-66.068,252.974-188.318C508.973,201.438,395.715,128.764,255.999,128.764z M81.238,386.495
		c-8.44,0-15.275-6.836-15.275-15.275c0-8.44,6.836-15.276,15.275-15.276c8.44,0,15.276,6.836,15.276,15.276
		C96.514,379.659,89.678,386.495,81.238,386.495z M123.125,272.325c-8.02,0-14.512-6.492-14.512-14.512
		c0-8.02,6.492-14.512,14.512-14.512c8.02,0,14.512,6.492,14.512,14.512C137.637,265.833,131.144,272.325,123.125,272.325z
		 M206.377,441.61c-8.02,0-14.512-6.492-14.512-14.512c0-8.02,6.492-14.511,14.512-14.511c8.02,0,14.512,6.491,14.512,14.511
		C220.889,435.117,214.397,441.61,206.377,441.61z M257.214,351.3c-8.44,0-15.276-6.836-15.276-15.275
		c0-8.44,6.836-15.276,15.276-15.276c8.44,0,15.275,6.836,15.275,15.276C272.489,344.464,265.654,351.3,257.214,351.3z
		 M261.125,191.333c-21.596,0-39.106-7.004-39.106-15.642c0-8.638,17.51-15.642,39.106-15.642c21.596,0,39.106,7.004,39.106,15.642
		C300.231,184.329,282.721,191.333,261.125,191.333z M359.256,425.601c-8.44,0-15.276-6.836-15.276-15.276
		c0-8.44,6.836-15.276,15.276-15.276s15.276,6.836,15.276,15.276C374.531,418.765,367.695,425.601,359.256,425.601z M391.304,241.04
		c-8.019,0-14.512-6.492-14.512-14.512c0-8.02,6.492-14.512,14.512-14.512c8.02,0,14.512,6.492,14.512,14.512
		C405.816,234.548,399.323,241.04,391.304,241.04z M438.231,334.894c-8.019,0-14.511-6.492-14.511-14.512
		c0-8.02,6.492-14.512,14.511-14.512c8.02,0,14.512,6.492,14.512,14.512C452.743,328.402,446.25,334.894,438.231,334.894z" style="fill: rgb(236, 104, 36);"></path>
</g>
</svg>
